<svg width="71" height="71" viewBox="0 0 71 71" fill="none" xmlns="http://www.w3.org/2000/svg">
<path d="M56.5641 48.494C55.219 48.494 53.8739 47.956 52.7978 46.8799L44.7273 38.8094C43.6512 37.7333 43.1132 36.3882 43.1132 35.0431C43.1132 33.698 43.6512 32.3529 44.7273 31.2769L52.7978 23.2063C53.8739 22.1303 55.219 21.5922 56.5641 21.5922C57.9091 21.5922 59.2542 22.1303 60.3303 23.2063L68.4008 31.2769C69.4769 32.3529 70.015 33.698 70.015 35.0431C70.015 36.3882 69.4769 37.7333 68.4008 38.8094L60.3303 46.8799C59.2542 47.956 57.9091 48.494 56.5641 48.494ZM56.5641 26.9726L48.4935 35.0431L56.5641 43.1137L64.6346 35.0431L56.5641 26.9726ZM35.0426 26.9726C33.6975 26.9726 32.3525 26.4345 31.2764 25.3585L23.2058 17.2879C22.1298 16.2119 21.5917 14.8668 21.5917 13.5217C21.5917 12.1766 22.1298 10.8315 23.2058 9.75544L31.2764 1.68491C32.3525 0.608836 33.6975 0.0708008 35.0426 0.0708008C36.3877 0.0708008 37.7328 0.608836 38.8089 1.68491L46.8794 9.75544C47.9555 10.8315 48.4935 12.1766 48.4935 13.5217C48.4935 14.8668 47.9555 16.2119 46.8794 17.2879L38.8089 25.3585C37.7328 26.4345 36.3877 26.9726 35.0426 26.9726ZM35.0426 5.45116L26.9721 13.5217L35.0426 21.5922L43.1132 13.5217L35.0426 5.45116ZM35.0426 70.0154C33.6975 70.0154 32.3525 69.4774 31.2764 68.4013L23.2058 60.3308C22.1298 59.2547 21.5917 57.9096 21.5917 56.5645C21.5917 55.2195 22.1298 53.8744 23.2058 52.7983L31.2764 44.7278C32.3525 43.6517 33.6975 43.1137 35.0426 43.1137C36.3877 43.1137 37.7328 43.6517 38.8089 44.7278L46.8794 52.7983C47.9555 53.8744 48.4935 55.2195 48.4935 56.5645C48.4935 57.9096 47.9555 59.2547 46.8794 60.3308L38.8089 68.4013C37.7328 69.4774 36.3877 70.0154 35.0426 70.0154ZM35.0426 48.494L26.9721 56.5645L35.0426 64.6351L43.1132 56.5645L35.0426 48.494ZM13.5212 48.494C12.1761 48.494 10.831 47.956 9.75495 46.8799L1.68442 38.8094C0.608348 37.7333 0.0703125 36.3882 0.0703125 35.0431C0.0703125 33.698 0.608348 32.3529 1.68442 31.2769L9.75495 23.2063C10.831 22.1303 12.1761 21.5922 13.5212 21.5922C14.8663 21.5922 16.2114 22.1303 17.2875 23.2063L25.358 31.2769C26.4341 32.3529 26.9721 33.698 26.9721 35.0431C26.9721 36.3882 26.4341 37.7333 25.358 38.8094L17.2875 46.8799C16.2114 47.956 14.8663 48.494 13.5212 48.494ZM13.5212 26.9726L5.45067 35.0431L13.5212 43.1137L21.5917 35.0431L13.5212 26.9726Z" fill="white"/>
</svg>
