<svg width="56" height="83" viewBox="0 0 56 83" fill="none" xmlns="http://www.w3.org/2000/svg">
<path fill-rule="evenodd" clip-rule="evenodd" d="M0.268066 14.2688C0.268066 10.635 1.71161 7.14995 4.28112 4.58044C6.85064 2.01092 10.3357 0.567383 13.9695 0.567383H41.3724C45.0062 0.567383 48.4912 2.01092 51.0607 4.58044C53.6302 7.14995 55.0738 10.635 55.0738 14.2688V69.0745C55.0738 72.7084 53.6302 76.1934 51.0607 78.7629C48.4912 81.3324 45.0062 82.7759 41.3724 82.7759H13.9695C10.3357 82.7759 6.85064 81.3324 4.28112 78.7629C1.71161 76.1934 0.268066 72.7084 0.268066 69.0745V14.2688ZM18.5366 7.4181V10.8435C18.5366 12.7343 20.0712 14.2688 21.962 14.2688H33.3799C34.2883 14.2688 35.1596 13.9079 35.8019 13.2655C36.4443 12.6232 36.8052 11.7519 36.8052 10.8435V7.4181H41.3724C43.1893 7.4181 44.9318 8.13987 46.2165 9.42462C47.5013 10.7094 48.2231 12.4519 48.2231 14.2688V69.0745C48.2231 70.8914 47.5013 72.6339 46.2165 73.9187C44.9318 75.2035 43.1893 75.9252 41.3724 75.9252H13.9695C12.1526 75.9252 10.4101 75.2035 9.12531 73.9187C7.84055 72.6339 7.11878 70.8914 7.11878 69.0745V14.2688C7.11878 12.4519 7.84055 10.7094 9.12531 9.42462C10.4101 8.13987 12.1526 7.4181 13.9695 7.4181H18.5366Z" fill="white"/>
</svg>
