<svg width="70" height="62" viewBox="0 0 70 62" fill="none" xmlns="http://www.w3.org/2000/svg">
<path fill-rule="evenodd" clip-rule="evenodd" d="M41.0834 13.9585C40.2483 13.9585 39.4474 14.3191 38.8568 14.961C38.2663 15.6028 37.9346 16.4734 37.9346 17.3811V44.7621C37.9346 45.6698 38.2663 46.5404 38.8568 47.1822C39.4474 47.8241 40.2483 48.1847 41.0834 48.1847H53.6786C54.5137 48.1847 55.3146 47.8241 55.9052 47.1822C56.4957 46.5404 56.8274 45.6698 56.8274 44.7621V17.3811C56.8274 16.4734 56.4957 15.6028 55.9052 14.961C55.3146 14.3191 54.5137 13.9585 53.6786 13.9585H41.0834ZM50.5298 20.8037H44.2322V41.3395H50.5298V20.8037Z" fill="white"/>
<path d="M15.893 13.9585C15.0578 13.9585 14.2569 14.3191 13.6664 14.961C13.0759 15.6028 12.7441 16.4734 12.7441 17.3811C12.7441 18.2889 13.0759 19.1594 13.6664 19.8013C14.2569 20.4431 15.0578 20.8037 15.893 20.8037H28.4882C29.3233 20.8037 30.1242 20.4431 30.7147 19.8013C31.3053 19.1594 31.637 18.2889 31.637 17.3811C31.637 16.4734 31.3053 15.6028 30.7147 14.961C30.1242 14.3191 29.3233 13.9585 28.4882 13.9585H15.893ZM15.893 27.649C15.0578 27.649 14.2569 28.0096 13.6664 28.6514C13.0759 29.2933 12.7441 30.1639 12.7441 31.0716C12.7441 31.9793 13.0759 32.8499 13.6664 33.4917C14.2569 34.1336 15.0578 34.4942 15.893 34.4942H28.4882C29.3233 34.4942 30.1242 34.1336 30.7147 33.4917C31.3053 32.8499 31.637 31.9793 31.637 31.0716C31.637 30.1639 31.3053 29.2933 30.7147 28.6514C30.1242 28.0096 29.3233 27.649 28.4882 27.649H15.893ZM12.7441 44.7621C12.7441 43.8543 13.0759 42.9838 13.6664 42.3419C14.2569 41.7 15.0578 41.3395 15.893 41.3395H28.4882C29.3233 41.3395 30.1242 41.7 30.7147 42.3419C31.3053 42.9838 31.637 43.8543 31.637 44.7621C31.637 45.6698 31.3053 46.5404 30.7147 47.1822C30.1242 47.8241 29.3233 48.1847 28.4882 48.1847H15.893C15.0578 48.1847 14.2569 47.8241 13.6664 47.1822C13.0759 46.5404 12.7441 45.6698 12.7441 44.7621Z" fill="white"/>
<path fill-rule="evenodd" clip-rule="evenodd" d="M9.59536 0.268066C7.09001 0.268066 4.68727 1.34986 2.91572 3.27545C1.14417 5.20105 0.148926 7.81272 0.148926 10.5359V51.6074C0.148926 54.3306 1.14417 56.9422 2.91572 58.8678C4.68727 60.7934 7.09001 61.8752 9.59536 61.8752H59.9763C62.4817 61.8752 64.8844 60.7934 66.6559 58.8678C68.4275 56.9422 69.4227 54.3306 69.4227 51.6074V10.5359C69.4227 7.81272 68.4275 5.20105 66.6559 3.27545C64.8844 1.34986 62.4817 0.268066 59.9763 0.268066H9.59536ZM59.9763 7.11331H9.59536C8.76024 7.11331 7.95933 7.4739 7.36881 8.11577C6.77829 8.75763 6.44655 9.62819 6.44655 10.5359V51.6074C6.44655 52.5151 6.77829 53.3857 7.36881 54.0275C7.95933 54.6694 8.76024 55.03 9.59536 55.03H59.9763C60.8114 55.03 61.6123 54.6694 62.2029 54.0275C62.7934 53.3857 63.1251 52.5151 63.1251 51.6074V10.5359C63.1251 9.62819 62.7934 8.75763 62.2029 8.11577C61.6123 7.4739 60.8114 7.11331 59.9763 7.11331Z" fill="white"/>
</svg>
