<svg width="67" height="64" viewBox="0 0 67 64" fill="none" xmlns="http://www.w3.org/2000/svg">
<path d="M23.8176 63.8883C22.8789 63.8883 22.0926 63.5702 21.4587 62.9341C20.8226 62.3002 20.5046 61.5139 20.5046 60.5752C20.5046 59.6365 20.8226 58.8501 21.4587 58.2162C22.0926 57.5801 22.8789 57.2621 23.8176 57.2621H27.1307V50.6359H7.25217C5.42997 50.6359 3.8706 49.9876 2.57408 48.6911C1.27534 47.3924 0.625977 45.8319 0.625977 44.0097V7.56564C0.625977 5.74344 1.27534 4.18297 2.57408 2.88424C3.8706 1.58771 5.42997 0.939453 7.25217 0.939453H60.2617C62.0839 0.939453 63.6444 1.58771 64.9431 2.88424C66.2396 4.18297 66.8879 5.74344 66.8879 7.56564V44.0097C66.8879 45.8319 66.2396 47.3924 64.9431 48.6911C63.6444 49.9876 62.0839 50.6359 60.2617 50.6359H40.3831V57.2621H43.6962C44.6349 57.2621 45.4223 57.5801 46.0585 58.2162C46.6924 58.8501 47.0093 59.6365 47.0093 60.5752C47.0093 61.5139 46.6924 62.3002 46.0585 62.9341C45.4223 63.5702 44.6349 63.8883 43.6962 63.8883H23.8176ZM7.25217 44.0097H60.2617V7.56564H7.25217V44.0097Z" fill="white"/>
</svg>
